# xmcd
#
# Track frame offsets:
#	150
#	22260
#	38560
#	70210
#	81125
#	103270
#	132685
#
# Disc length: 2123 seconds
#
# Revision: 0
# Processed by: cddbd v1.5.1PL0 Copyright (c) Steve Scherf et al.
# Submitted via: EasyCDDAExtractor 8.0.2.1
#
DISCID=61084907
DTITLE=Ozzy Osbourne - Forum Montreal 24-09-86 Disc 2
DYEAR=1986
DGENRE=Hard Rock
TTITLE0=Flying High Again
TTITLE1=Secret Loser
TTITLE2=Drum Solo
TTITLE3=Secret Loser Reprise
TTITLE4=Iron Man
TTITLE5=Crazy Train
TTITLE6=Paranoid
EXTD=
EXTT0=
EXTT1=
EXTT2=
EXTT3=
EXTT4=
EXTT5=
EXTT6=
PLAYORDER=
